<svg width="750" height="500" viewBox="0 0 750 500" fill="none" xmlns="http://www.w3.org/2000/svg">
<path d="M201 382.66C222.16 364.1 224.09 333.79 220.23 307.15C219.59 302.71 219.56 297.95 217 294.27C214.44 290.59 209.2 288.46 205.41 290.78C202.27 292.7 201.25 296.72 199.75 300.11C197.74 304.632 194.496 308.497 190.39 311.26C187.71 313.05 184.29 314.34 181.31 313.1C177.23 311.4 176.19 306.1 175.73 301.69L173.15 276.86C172.68 272.42 172.2 267.86 170.35 263.86C168.5 259.86 165.02 256.22 160.67 255.51C156.32 254.8 151.37 257.8 150.95 262.24C150.78 264.09 151.36 265.93 151.44 267.78C151.52 269.63 150.88 271.78 149.19 272.48C147.5 273.18 145.56 272.13 144.09 270.98C139.02 266.98 135.27 261.57 131.73 256.15C128.19 250.73 124.73 245.15 120.03 240.74C115.33 236.33 109.16 233.07 102.76 233.41C96.3599 233.75 90.0199 238.41 89.0999 244.84C88.1799 251.27 92.5399 257.22 97.0999 261.84C103.818 268.703 111.494 274.557 119.89 279.22C121.4 280.06 123.04 280.97 123.75 282.55C125.04 285.41 122.56 288.65 119.75 289.95C116.56 291.42 112.94 291.47 109.52 292.26C106.1 293.05 102.52 294.99 101.52 298.4C100.21 303.14 104.52 307.48 108.6 310.18C116.769 315.592 125.807 319.559 135.32 321.91C138.72 322.74 142.27 323.41 145.15 325.42C148.03 327.43 150.07 331.23 148.82 334.53C147.57 337.83 143.6 339.29 140.11 339.03C136.62 338.77 133.36 337.26 129.96 336.39C123.61 334.76 115.78 336.05 112.45 341.75C110.27 345.5 110.57 350.35 112.33 354.34C114.09 358.33 117.11 361.59 120.27 364.56C131.27 374.95 144.84 382.81 159.53 386.15C174.22 389.49 187.53 389.38 200.98 382.69" fill="#EBEBEB"/>
<path d="M203.52 402.44C200.917 390.179 197.139 378.197 192.24 366.66C186.191 352.587 179.343 338.872 171.73 325.58C169.73 322.04 167.753 318.543 165.8 315.09C163.8 311.65 161.91 308.24 159.8 305.02C155.759 298.846 151.375 292.904 146.67 287.22C142.22 281.76 137.8 276.74 133.67 272.07C129.54 267.4 125.5 263.15 121.67 259.42C115.718 253.493 109.301 248.052 102.48 243.15C100.07 241.41 98.1598 240.15 96.8498 239.27L95.3598 238.27C95.1949 238.153 95.021 238.05 94.8398 237.96C94.9842 238.101 95.1416 238.228 95.3098 238.34L96.7598 239.34C98.0398 240.24 99.9198 241.56 102.29 243.34C109.025 248.333 115.377 253.826 121.29 259.77C125.04 263.52 128.99 267.77 133.14 272.46C137.29 277.15 141.68 282.17 146.14 287.63C150.79 293.312 155.129 299.24 159.14 305.39C161.23 308.6 163.14 311.98 165.14 315.39L171 326C178.607 339.271 185.461 352.959 191.53 367C196.455 378.469 200.295 390.374 203 402.56" fill="#E0E0E0"/>
<path d="M159.57 305C159.71 304.363 159.784 303.713 159.79 303.06C159.89 301.81 159.97 300 160.04 297.75C160.18 293.26 160.16 287.06 160.12 280.22C160.08 273.38 160.12 267.22 160.35 262.71C160.45 260.47 160.54 258.66 160.63 257.41C160.705 256.745 160.705 256.074 160.63 255.41C160.444 256.035 160.326 256.679 160.28 257.33C160.1 258.57 159.91 260.38 159.74 262.62C159.38 267.1 159.22 273.32 159.27 280.17C159.32 287.02 159.39 293.02 159.43 297.69C159.43 299.8 159.43 301.58 159.43 303C159.398 303.67 159.445 304.341 159.57 305Z" fill="#E0E0E0"/>
<path d="M101.33 300.64C102.095 300.711 102.865 300.711 103.63 300.64C105.11 300.64 107.25 300.55 109.89 300.56C115.18 300.56 122.49 300.79 130.54 301.4C138.59 302.01 145.85 302.92 151.09 303.71C153.71 304.08 155.82 304.44 157.28 304.71C158.031 304.887 158.799 304.987 159.57 305.01C158.846 304.741 158.1 304.537 157.34 304.4C155.89 304.06 153.79 303.61 151.18 303.15C145.95 302.22 138.67 301.24 130.6 300.61C123.712 300.054 116.799 299.851 109.89 300C107.23 300.07 105.09 300.21 103.61 300.34C102.843 300.373 102.08 300.473 101.33 300.64Z" fill="#E0E0E0"/>
<path d="M191.42 365.69C191.553 365.457 191.657 365.208 191.73 364.95C191.94 364.36 192.18 363.64 192.48 362.77C193.12 360.89 193.98 358.13 194.99 354.71C196.99 347.87 199.54 338.33 202.16 327.77C204.78 317.21 207.21 307.65 209.1 300.77C210.02 297.42 210.79 294.68 211.35 292.63C211.6 291.75 211.79 291.01 211.96 290.41C212.045 290.155 212.096 289.889 212.11 289.62C211.982 289.856 211.878 290.104 211.8 290.36C211.6 290.95 211.35 291.67 211.05 292.53C210.41 294.42 209.55 297.18 208.54 300.6C206.54 307.44 204 316.98 201.37 327.55C198.74 338.12 196.32 347.66 194.44 354.55C193.51 357.9 192.75 360.65 192.18 362.69L191.58 364.91C191.491 365.161 191.437 365.424 191.42 365.69Z" fill="#E0E0E0"/>
<path d="M112.89 349.61C113.141 349.723 113.407 349.8 113.68 349.84L115.96 350.33L124.37 352.07C131.48 353.54 141.26 355.68 152.07 358.07C162.88 360.46 172.7 362.5 179.83 363.83C183.4 364.49 186.29 364.99 188.29 365.3L190.6 365.64C190.87 365.692 191.145 365.716 191.42 365.71C191.168 365.597 190.902 365.52 190.63 365.48L188.35 364.98L179.94 363.25C172.84 361.78 163.05 359.64 152.24 357.25C141.43 354.86 131.62 352.82 124.48 351.5C120.92 350.84 118.03 350.33 116.02 350.03L113.71 349.68C113.441 349.617 113.165 349.593 112.89 349.61Z" fill="#E0E0E0"/>
<path d="M210.77 53.38L270.83 91.49L246.29 133.21L184.76 92.72L210.77 53.38Z" fill="#EBEBEB"/>
<path d="M270.83 91.49C270.76 91.5207 270.686 91.5409 270.61 91.55L269.94 91.68L267.38 92.15L257.94 93.75L226.58 98.9H226.36L226.29 98.69C226.13 98.24 225.96 97.69 225.79 97.25C221.6 85.15 217.79 74.25 215.06 66.25C213.73 62.31 212.64 59.1 211.87 56.84C211.51 55.75 211.23 54.84 211.03 54.27C210.94 54 210.88 53.77 210.82 53.59C210.809 53.5137 210.809 53.4363 210.82 53.36C210.858 53.4312 210.891 53.5047 210.92 53.58L211.18 54.23C211.4 54.85 211.72 55.7 212.11 56.77C212.92 59.02 214.06 62.21 215.46 66.13C218.25 74.13 222.09 85.02 226.33 97.13L226.83 98.58L226.54 98.41L257.93 93.41L267.35 92L269.93 91.63L270.6 91.55C270.672 91.5143 270.75 91.4939 270.83 91.49Z" fill="#E0E0E0"/>
<path d="M184.76 92.72C184.76 92.58 192.87 90.43 202.96 87.9C213.05 85.37 221.26 83.45 221.29 83.59C221.32 83.73 213.18 85.89 203.09 88.41C193 90.93 184.79 92.86 184.76 92.72Z" fill="#E0E0E0"/>
<path d="M246.29 133.21C246.15 133.21 244.77 125.11 243.21 115.07C241.65 105.03 240.51 96.87 240.65 96.85C240.79 96.83 242.17 104.95 243.73 114.99C245.29 125.03 246.43 133.18 246.29 133.21Z" fill="#E0E0E0"/>
<path d="M609.1 167.52L666.61 158.17L674.29 197.07L614.58 205.77L609.1 167.52Z" fill="#F5F5F5"/>
<path d="M666.61 158.17C666.485 158.386 666.341 158.59 666.18 158.78L664.87 160.46C663.69 162 662 164 660 166.59L643.61 186.82L643.47 186.99L643.28 186.89L642.18 186.28L618.75 173.11L611.67 169.11L609.74 168C609.513 167.872 609.296 167.729 609.09 167.57C609.331 167.662 609.565 167.773 609.79 167.9L611.79 168.9L618.95 172.8L642.46 185.8L643.55 186.41L643.22 186.48L659.74 166.34L664.74 160.34C665.32 159.673 665.78 159.133 666.12 158.72C666.269 158.525 666.433 158.341 666.61 158.17Z" fill="#E0E0E0"/>
<path d="M614.58 205.77C614.46 205.69 618.26 199.92 623.07 192.89C627.88 185.86 631.86 180.21 631.98 180.3C632.1 180.39 628.3 186.14 623.5 193.18C618.7 200.22 614.7 205.85 614.58 205.77Z" fill="#E0E0E0"/>
<path d="M674.29 197.07C674.2 197.18 668.92 192.97 662.5 187.67C656.08 182.37 651 178 651.05 177.88C651.1 177.76 656.42 181.97 662.84 187.27C669.26 192.57 674.38 197 674.29 197.07Z" fill="#E0E0E0"/>
<path d="M449.08 119.65L547.43 93.29L567.61 159.57L465.33 185.17L449.08 119.65Z" fill="#55514E"/>
<path d="M465.33 185.17C465.2 185.11 470.62 174.92 477.42 162.43C484.22 149.94 489.84 139.87 489.97 139.93C490.1 139.99 484.68 150.18 477.88 162.68C471.08 175.18 465.46 185.24 465.33 185.17Z" fill="#263238"/>
<path d="M567.61 159.57C567.53 159.69 557.61 153.21 545.51 145.1C533.41 136.99 523.63 130.32 523.71 130.2C523.79 130.08 533.71 136.55 545.8 144.67C557.89 152.79 567.69 159.45 567.61 159.57Z" fill="#263238"/>
<path d="M449.08 119.65C449.193 119.686 449.303 119.729 449.41 119.78L450.35 120.22L453.93 121.95L467.09 128.38L510.39 149.78L510.92 150.04L510.58 150.13L536.58 109.86C539.91 104.75 542.58 100.6 544.49 97.71L546.66 94.42L547.24 93.57C547.301 93.4699 547.371 93.3761 547.45 93.29C547.401 93.3975 547.345 93.5012 547.28 93.6L546.75 94.48L544.66 97.82L536.89 110.06L511 150.41L510.88 150.61L510.67 150.5L510.14 150.24L466.9 128.71L453.82 122.13L450.28 120.31L449.36 119.83C449.26 119.781 449.166 119.721 449.08 119.65Z" fill="#263238"/>
<path d="M109.81 147.43L206.32 157.08L201.97 222.93L102.22 211.29L109.81 147.43Z" fill="#55514E"/>
<path d="M102.22 211.29C102.12 211.18 110.37 203.93 120.64 195.09C130.91 186.25 139.32 179.17 139.41 179.28C139.5 179.39 131.26 186.64 120.98 195.48C110.7 204.32 102.31 211.4 102.22 211.29Z" fill="#263238"/>
<path d="M202 222.93C201.89 223.02 195.25 213.93 187.18 202.6C179.11 191.27 172.67 182.05 172.78 181.97C172.89 181.89 179.54 190.97 187.61 202.3C195.68 213.63 202.09 222.85 202 222.93Z" fill="#263238"/>
<path d="M109.81 147.43C109.81 147.43 109.9 147.5 110.06 147.66L110.75 148.36L113.37 151.11L122.92 161.27L154.3 194.92L154.68 195.33H154.34L191.05 168.21L202.2 160L205.2 157.81L206 157.25C206.086 157.179 206.18 157.118 206.28 157.07C206.28 157.07 206.2 157.15 206.03 157.29L205.26 157.89L202.26 160.17C199.62 162.17 195.86 164.97 191.26 168.46L154.64 195.71L154.45 195.85L154.29 195.68L153.91 195.27L122.64 161.51L113.21 151.24L110.66 148.42L110.01 147.68C109.937 147.602 109.87 147.519 109.81 147.43Z" fill="#263238"/>
<path d="M660.86 246.63C660.86 246.63 652.2 241.01 641.86 261.7C631.52 282.39 627.65 294.3 627.65 294.3C627.65 294.3 624.91 298.64 621.92 295.84C618.93 293.04 614.8 285.08 609.78 286.56C604.56 288.1 602.89 293.95 603.96 302.51C605.03 311.07 606.68 329.92 606.82 331.63C606.96 333.34 606.02 335.78 603.68 334.2C601.34 332.62 587.82 317.82 581.18 324.65C574.54 331.48 581.44 354.85 582.18 357.42C582.92 359.99 582.39 361.1 581.18 361.74C579.97 362.38 575.89 356.99 571.87 352.93C567.85 348.87 562.49 344.93 558.99 349.15C555.49 353.37 554.5 371 571.47 399.41L580.19 412.06L595.59 411.06C628.43 406.94 641.68 395.34 642.89 389.96C644.1 384.58 637.64 382.8 631.97 382.13C626.3 381.46 619.54 381.58 619.3 380.22C619.06 378.86 619.63 377.79 622.09 376.76C624.55 375.73 647.21 366.76 648.51 357.35C649.81 347.94 629.82 346.35 627.14 345.49C624.46 344.63 625.83 342.36 627.23 341.44C628.63 340.52 644.54 330.2 651.94 325.77C659.34 321.34 662.94 316.43 660.94 311.37C659.02 306.5 650.2 308.15 646.15 307.51C642.1 306.87 643.84 302.05 643.84 302.05C643.84 302.05 650.84 291.66 660.84 270.78C670.84 249.9 660.76 246.51 660.76 246.51" fill="#FF725E"/>
<path d="M651.57 265.14C651.518 265.293 651.458 265.443 651.39 265.59L650.8 266.89L648.49 271.84C646.49 276.14 643.49 282.35 639.83 290C632.47 305.3 622.11 326.35 610.6 349.57C599.09 372.79 588.68 393.82 581.23 409.08C577.52 416.69 574.52 422.87 572.43 427.16C571.43 429.27 570.59 430.93 570.03 432.07L569.39 433.34L569.16 433.77C569.212 433.617 569.272 433.467 569.34 433.32L569.93 432.03L572.24 427.03C574.24 422.73 577.24 416.53 580.9 408.88C588.26 393.57 598.62 372.52 610.14 349.3C621.66 326.08 632.05 305.06 639.5 289.8L648.31 271.71L650.71 266.8L651.34 265.53L651.57 265.14Z" fill="#263238"/>
<path d="M615.11 297.94C615.289 298.254 615.426 298.591 615.52 298.94C615.75 299.62 616.05 300.6 616.41 301.83C617.13 304.28 618.04 307.69 618.97 311.47C619.9 315.25 620.68 318.56 621.3 321.16C621.59 322.31 621.83 323.29 622.02 324.09C622.144 324.441 622.218 324.808 622.24 325.18C622.066 324.863 621.929 324.528 621.83 324.18C621.6 323.51 621.3 322.52 620.95 321.29C620.25 318.83 619.39 315.41 618.46 311.63C617.53 307.85 616.7 304.56 616.06 301.96C615.77 300.81 615.52 299.84 615.32 299.04C615.207 298.683 615.137 298.314 615.11 297.94Z" fill="#263238"/>
<path d="M623.65 325.48C623.65 325.34 630.56 323.16 639.17 320.61C647.78 318.06 654.79 316.1 654.83 316.24C654.87 316.38 647.92 318.56 639.31 321.11C630.7 323.66 623.69 325.62 623.65 325.48Z" fill="#263238"/>
<path d="M604.36 360.34C604.735 360.269 605.118 360.246 605.5 360.27H608.58C611.18 360.27 614.78 360.21 618.74 360.03C622.7 359.85 626.29 359.56 628.88 359.34L631.96 359.08C632.335 359.038 632.714 359.038 633.09 359.08C632.732 359.208 632.359 359.289 631.98 359.32C631.26 359.44 630.22 359.59 628.92 359.75C626.33 360.07 622.74 360.41 618.77 360.59C614.8 360.77 611.18 360.76 608.58 360.68C607.27 360.68 606.22 360.59 605.49 360.54C605.107 360.514 604.728 360.447 604.36 360.34Z" fill="#263238"/>
<path d="M591.16 337.13C591.399 337.386 591.604 337.672 591.77 337.98C592.14 338.54 592.66 339.37 593.28 340.4C594.54 342.45 596.28 345.3 598.11 348.47C599.94 351.64 601.62 354.47 602.8 356.62L604.17 359.12C604.352 359.419 604.5 359.738 604.61 360.07C604.366 359.816 604.157 359.53 603.99 359.22C603.62 358.66 603.11 357.83 602.48 356.81C601.22 354.76 599.48 351.9 597.66 348.73C595.84 345.56 594.14 342.68 592.97 340.58C592.38 339.53 591.91 338.68 591.6 338.08C591.403 337.789 591.255 337.468 591.16 337.13Z" fill="#263238"/>
<path d="M570.22 365.74C570.512 366.077 570.77 366.442 570.99 366.83L572.99 369.93C574.62 372.55 576.83 376.19 579.25 380.22C581.67 384.25 583.84 387.93 585.38 390.6C586.1 391.88 586.71 392.94 587.19 393.78C587.426 394.161 587.627 394.563 587.79 394.98C587.491 394.643 587.23 394.274 587.01 393.88L585 390.79C583.37 388.17 581.15 384.53 578.73 380.49C576.31 376.45 574.15 372.78 572.61 370.11L570.8 366.94C570.566 366.561 570.372 366.159 570.22 365.74Z" fill="#263238"/>
<path d="M587.52 394.16C588.008 394.067 588.503 394.014 589 394L592.91 393.83C596.21 393.69 600.76 393.48 605.79 393.11C610.82 392.74 615.35 392.29 618.64 391.95L622.53 391.55C623.002 391.467 623.481 391.436 623.96 391.46C623.502 391.595 623.034 391.692 622.56 391.75C621.64 391.9 620.32 392.1 618.68 392.31C615.4 392.75 610.86 393.26 605.83 393.63C600.8 394 596.23 394.15 592.92 394.2C591.27 394.2 589.92 394.2 589 394.2C588.507 394.243 588.01 394.23 587.52 394.16Z" fill="#263238"/>
<path d="M158 383.42C153.24 384.07 149 386.73 145.53 390.09C143.69 391.9 141.95 394.09 141.63 396.61C141.31 399.13 142.98 402.11 145.55 402.31C147.099 402.292 148.59 401.725 149.76 400.71C152.76 398.54 155.76 395.65 159.48 395.77C161.6 395.84 163.73 396.93 165.75 396.28C166.722 395.898 167.541 395.208 168.083 394.316C168.625 393.424 168.859 392.378 168.75 391.34C168.462 389.264 167.388 387.377 165.75 386.07C164.749 385.062 163.529 384.298 162.185 383.838C160.841 383.379 159.409 383.235 158 383.42Z" fill="#FF725E"/>
<g opacity="0.3">
<path d="M158 383.42C153.24 384.07 149 386.73 145.53 390.09C143.69 391.9 141.95 394.09 141.63 396.61C141.31 399.13 142.98 402.11 145.55 402.31C147.099 402.292 148.59 401.725 149.76 400.71C152.76 398.54 155.76 395.65 159.48 395.77C161.6 395.84 163.73 396.93 165.75 396.28C166.722 395.898 167.541 395.208 168.083 394.316C168.625 393.424 168.859 392.378 168.75 391.34C168.462 389.264 167.388 387.377 165.75 386.07C164.749 385.062 163.529 384.298 162.185 383.838C160.841 383.379 159.409 383.235 158 383.42Z" fill="black"/>
</g>
<path d="M155.18 362.35C155.18 366.9 150.32 368.8 147.09 368.29C143.86 367.78 141.15 365.65 138.6 363.6C132.78 358.9 126.74 353.93 123.8 347.05C122.827 345.023 122.432 342.767 122.66 340.53C122.791 339.417 123.211 338.357 123.877 337.455C124.544 336.554 125.434 335.842 126.46 335.39C128.95 334.48 131.69 335.62 134 336.91C140.815 340.724 146.692 346.013 151.2 352.39C153.3 355.39 155.14 358.72 155.2 362.39" fill="#FF725E"/>
<g opacity="0.3">
<path d="M155.18 362.35C155.18 366.9 150.32 368.8 147.09 368.29C143.86 367.78 141.15 365.65 138.6 363.6C132.78 358.9 126.74 353.93 123.8 347.05C122.827 345.023 122.432 342.767 122.66 340.53C122.791 339.417 123.211 338.357 123.877 337.455C124.544 336.554 125.434 335.842 126.46 335.39C128.95 334.48 131.69 335.62 134 336.91C140.815 340.724 146.692 346.013 151.2 352.39C153.3 355.39 155.14 358.72 155.2 362.39" fill="white"/>
</g>
<path d="M164.12 362.61C159.87 361.49 156.61 357.78 155.22 353.61C153.997 349.367 153.963 344.871 155.12 340.61C156.308 335.575 158.464 330.82 161.47 326.61C162.58 324.903 164.043 323.454 165.76 322.36C166.627 321.826 167.611 321.511 168.627 321.443C169.643 321.375 170.66 321.556 171.59 321.97C174.26 323.34 175.01 326.75 175.34 329.73C175.918 334.989 176.082 340.285 175.83 345.57C175.63 349.82 175.09 354.25 172.71 357.77C170.33 361.29 166.85 363.52 163.54 362.48" fill="#FF725E"/>
<path d="M187.63 408.29C187.198 407.915 186.806 407.496 186.46 407.04L183.46 403.51C181.965 401.778 180.379 400.126 178.71 398.56C176.649 396.672 174.438 394.953 172.1 393.42C169.777 391.881 167.249 390.676 164.59 389.84C162.425 389.162 160.137 388.974 157.89 389.29C156.38 389.525 154.916 389.994 153.55 390.68C153.072 390.989 152.563 391.247 152.03 391.45C152.459 391.071 152.924 390.736 153.42 390.45C154.778 389.646 156.268 389.091 157.82 388.81C160.138 388.415 162.516 388.559 164.77 389.23C167.503 390.049 170.101 391.265 172.48 392.84C174.856 394.396 177.091 396.156 179.16 398.1C180.821 399.705 182.384 401.408 183.84 403.2C185.09 404.73 186.04 406 186.7 406.88C187.06 407.315 187.372 407.788 187.63 408.29Z" fill="#263238"/>
<path d="M185.33 405.56C185.144 405.373 184.979 405.165 184.84 404.94L183.55 403.1C182.44 401.5 180.81 399.19 178.73 396.4C174.58 390.79 168.56 383.25 161.53 375.26C154.5 367.27 147.76 360.36 142.68 355.58C141.43 354.37 140.27 353.3 139.23 352.38C138.19 351.46 137.33 350.64 136.59 350.01L134.9 348.52C134.694 348.358 134.506 348.174 134.34 347.97C134.576 348.086 134.795 348.234 134.99 348.41L136.76 349.8C137.53 350.4 138.44 351.18 139.49 352.09C140.54 353 141.74 354.03 143.02 355.22C149.699 361.399 156.042 367.931 162.02 374.79C169.02 382.79 175.02 390.41 179.08 396.1C181.08 398.94 182.69 401.3 183.74 402.95L184.92 404.87C185.082 405.084 185.22 405.315 185.33 405.56Z" fill="#263238"/>
<path d="M174.59 390.35C174.098 389.738 173.653 389.09 173.26 388.41C172.46 387.13 171.38 385.22 170.19 382.79C168.818 379.936 167.606 377.008 166.56 374.02C165.257 370.362 164.214 366.616 163.44 362.81C161.878 355.904 161.583 348.771 162.57 341.76C162.747 340.551 163.005 339.355 163.34 338.18C163.47 337.66 163.57 337.18 163.72 336.73L164.16 335.55C164.394 334.803 164.692 334.077 165.05 333.38C165.23 333.44 163.83 336.52 163.05 341.83C162.22 348.787 162.579 355.834 164.11 362.67C164.867 366.441 165.869 370.159 167.11 373.8C168.119 376.783 169.277 379.713 170.58 382.58C171.7 385.03 172.71 386.96 173.43 388.28C173.88 388.933 174.268 389.626 174.59 390.35Z" fill="#263238"/>
<path d="M570.14 172.35H197.55C189.503 172.35 182.98 178.873 182.98 186.92V423.44C182.98 431.487 189.503 438.01 197.55 438.01H570.14C578.187 438.01 584.71 431.487 584.71 423.44V186.92C584.71 178.873 578.187 172.35 570.14 172.35Z" fill="#7B726A"/>
<path d="M166.18 418.36H601.42V423.81C601.42 428.531 599.545 433.058 596.207 436.397C592.869 439.735 588.341 441.61 583.62 441.61H184C181.663 441.61 179.348 441.15 177.188 440.255C175.029 439.361 173.067 438.049 171.414 436.397C169.761 434.744 168.45 432.781 167.555 430.622C166.661 428.462 166.2 426.148 166.2 423.81V418.36H166.18Z" fill="#312E2C"/>
<path d="M572.8 182.9H193.76V407.25H572.8V182.9Z" fill="black"/>
<path d="M344.24 418.36L349.64 426.95H425.64L430.66 418.36H344.24Z" fill="#869CA6"/>
<path d="M562.5 190.5H204.84C203.034 190.5 201.57 191.964 201.57 193.77V403.26C201.57 405.066 203.034 406.53 204.84 406.53H562.5C564.306 406.53 565.77 405.066 565.77 403.26V193.77C565.77 191.964 564.306 190.5 562.5 190.5Z" fill="#EBEBEB"/>
<path d="M566.2 189H202V389.2H566.2V189Z" fill="#FAFAFA"/>
<path d="M231.44 198.84C231.44 199.415 231.269 199.978 230.95 200.457C230.63 200.935 230.175 201.308 229.644 201.528C229.112 201.749 228.527 201.806 227.962 201.694C227.398 201.582 226.879 201.305 226.472 200.898C226.065 200.491 225.788 199.972 225.676 199.408C225.564 198.843 225.621 198.258 225.842 197.726C226.062 197.195 226.435 196.74 226.913 196.42C227.392 196.101 227.955 195.93 228.53 195.93C229.302 195.93 230.042 196.237 230.588 196.782C231.134 197.328 231.44 198.068 231.44 198.84Z" fill="#869CA6"/>
<path d="M213.81 198.84C213.81 199.415 213.64 199.978 213.32 200.457C213 200.935 212.546 201.308 212.014 201.528C211.482 201.749 210.897 201.806 210.333 201.694C209.768 201.582 209.25 201.305 208.843 200.898C208.436 200.491 208.158 199.972 208.046 199.408C207.934 198.843 207.992 198.258 208.212 197.726C208.432 197.195 208.805 196.74 209.284 196.42C209.762 196.101 210.325 195.93 210.9 195.93C211.672 195.93 212.412 196.237 212.958 196.782C213.504 197.328 213.81 198.068 213.81 198.84Z" fill="#869CA6"/>
<path d="M222.27 198.84C222.27 199.416 222.099 199.979 221.779 200.458C221.459 200.936 221.004 201.309 220.471 201.529C219.939 201.749 219.354 201.806 218.789 201.693C218.224 201.58 217.706 201.302 217.299 200.894C216.892 200.486 216.616 199.967 216.505 199.402C216.394 198.836 216.453 198.251 216.675 197.719C216.896 197.188 217.271 196.734 217.751 196.416C218.231 196.097 218.794 195.928 219.37 195.93C219.752 195.93 220.13 196.005 220.482 196.152C220.835 196.298 221.155 196.513 221.424 196.783C221.694 197.053 221.907 197.374 222.052 197.727C222.197 198.08 222.272 198.458 222.27 198.84Z" fill="#869CA6"/>
<path d="M581.26 418.36C581.26 418.5 492.09 418.62 382.13 418.62C272.17 418.62 183 418.5 183 418.36C183 418.22 272.15 418.1 382.15 418.1C492.15 418.1 581.26 418.22 581.26 418.36Z" fill="#869CA6"/>
<path d="M273.35 335.44C273.263 333.007 273.347 330.571 273.6 328.15C273.673 325.714 273.927 323.288 274.36 320.89C274.447 323.326 274.364 325.765 274.11 328.19C274.031 330.622 273.777 333.045 273.35 335.44Z" fill="#FAFAFA"/>
<path d="M528.82 316C508.36 284.37 487.12 248.88 487.12 248.88C468.64 226.34 453.71 218.46 424.58 217.24L367.91 217C356.77 217.63 330.91 211.89 306.91 246.31L306.8 246.14C306.8 246.14 285.55 281.63 265.1 313.27C242.17 348.74 255.89 385.57 280.39 387.72C305.16 389.89 320.52 390.55 328.75 390.72L328.36 406.6L459.75 406.39L458.41 388.6C471.59 388.6 508.08 388.46 513.47 387.79C537.88 384.82 551.75 351.51 528.82 316ZM330.61 309L329.79 345.86L306.79 345.93L330.61 309ZM460.9 348.57L464.49 313.57L487.12 348.67L460.9 348.57Z" fill="#FF3C00"/>
<path d="M422.38 215.58C422.404 215.856 422.404 216.134 422.38 216.41C422.372 217.196 422.315 217.981 422.21 218.76C422.053 220.001 421.816 221.23 421.5 222.44C421.055 224.038 420.486 225.6 419.8 227.11C417.974 231.045 415.28 234.516 411.92 237.26C407.757 240.608 402.653 242.576 397.32 242.89C391.976 243.267 386.658 241.86 382.2 238.89C378.62 236.425 375.72 233.095 373.77 229.21C372.462 226.608 371.593 223.806 371.2 220.92C371.085 220.138 371.022 219.35 371.01 218.56C370.984 218.287 370.984 218.013 371.01 217.74C371.067 218.01 371.1 218.284 371.11 218.56C371.11 219.1 371.24 219.88 371.4 220.89C371.866 223.732 372.777 226.482 374.1 229.04C376.058 232.842 378.935 236.094 382.47 238.5C386.855 241.372 392.062 242.725 397.29 242.35C402.519 242.043 407.524 240.125 411.62 236.86C414.942 234.177 417.62 230.784 419.46 226.93C420.72 224.338 421.58 221.57 422.01 218.72C422.136 217.945 422.223 217.164 422.27 216.38C422.284 216.111 422.321 215.843 422.38 215.58Z" fill="#263238"/>
<path d="M464.08 318.53C463.93 318.53 464.48 303.39 465.3 284.74C466.12 266.09 466.9 251 467 251C467.1 251 466.6 266.14 465.78 284.8C464.96 303.46 464.22 318.54 464.08 318.53Z" fill="#263238"/>
<path d="M333.29 251C333.336 251.2 333.356 251.405 333.35 251.61V253.34C333.35 254.84 333.4 257.01 333.35 259.7C333.35 265.08 333.21 272.5 332.83 280.7C332.45 288.9 331.9 296.3 331.41 301.7C331.17 304.38 330.95 306.54 330.77 308.04C330.69 308.74 330.62 309.31 330.56 309.75C330.544 309.952 330.511 310.153 330.46 310.35C330.434 310.148 330.434 309.942 330.46 309.74C330.46 309.29 330.53 308.74 330.57 308.02C330.69 306.45 330.85 304.3 331.04 301.67C331.44 296.32 331.93 288.91 332.31 280.73C332.69 272.55 332.88 265.13 332.99 259.73C332.99 257.09 333.07 254.94 333.1 253.37C333.1 252.66 333.1 252.09 333.15 251.64C333.18 251.423 333.227 251.209 333.29 251Z" fill="#263238"/>
<path d="M453.56 387.29C453.503 387.047 453.47 386.799 453.46 386.55C453.46 386.02 453.34 385.3 453.25 384.38C453.09 382.45 452.86 379.72 452.57 376.3C452.02 369.37 451.26 359.7 450.38 348.57V348.29H450.66L463.58 348.5L500.2 349.17L511.3 349.43L514.3 349.53H515.08C515.169 349.517 515.26 349.517 515.35 349.53C515.261 349.545 515.169 349.545 515.08 349.53H514.3H511.3L500.2 349.43L463.56 349L450.63 348.78L450.88 348.51C451.69 359.64 452.39 369.32 452.88 376.26C453.1 379.68 453.29 382.42 453.41 384.35C453.47 385.27 453.51 385.99 453.54 386.52C453.563 386.776 453.569 387.033 453.56 387.29Z" fill="#263238"/>
<path d="M510.34 342C510.34 342.09 508.92 342 506.66 342.12C503.71 342.287 500.79 342.8 497.96 343.65C495.137 344.526 492.425 345.727 489.88 347.23C487.93 348.39 486.81 349.23 486.76 349.18C486.71 349.13 487 348.92 487.49 348.51C488.189 347.934 488.924 347.403 489.69 346.92C492.208 345.294 494.941 344.028 497.81 343.16C500.675 342.289 503.646 341.814 506.64 341.75C507.548 341.733 508.456 341.766 509.36 341.85C509.692 341.858 510.021 341.908 510.34 342Z" fill="#263238"/>
<path d="M336.27 391C336.255 390.924 336.255 390.846 336.27 390.77C336.27 390.59 336.27 390.37 336.34 390.1C336.42 389.47 336.53 388.62 336.66 387.52C336.97 385.24 337.41 382 337.95 377.98C339.1 369.85 340.68 358.59 342.48 345.85L342.73 346.15L335.73 346.05C321.22 345.95 308.07 346.22 298.55 346.17C293.79 346.17 289.94 346.1 287.28 346.03L284.22 345.93H283.42H283.15C283.239 345.915 283.331 345.915 283.42 345.93H287.28H298.55C308.06 345.88 321.21 345.56 335.74 345.66L342.74 345.76H343V346.05C341.14 358.77 339.49 370.05 338.3 378.15C337.69 382.15 337.2 385.4 336.86 387.67C336.68 388.76 336.54 389.61 336.44 390.23C336.44 390.5 336.36 390.72 336.32 390.9C336.28 391.08 336.28 391 336.27 391Z" fill="#263238"/>
<path d="M306.23 346.32C305.5 345.824 304.829 345.247 304.23 344.6C303.05 343.47 301.48 341.84 299.86 339.94C298.24 338.04 296.86 336.23 295.96 334.88C295.417 334.179 294.957 333.417 294.59 332.61C295.204 333.244 295.763 333.93 296.26 334.66C297.26 335.95 298.65 337.66 300.26 339.61C301.87 341.56 303.38 343.15 304.5 344.34C305.13 344.952 305.708 345.614 306.23 346.32Z" fill="#263238"/>
<path d="M365 260.88C363.474 258.433 362.098 255.895 360.88 253.28C359.509 250.743 358.287 248.129 357.22 245.45C358.747 247.897 360.123 250.435 361.34 253.05C362.716 255.584 363.938 258.199 365 260.88Z" fill="#FAFAFA"/>
<path d="M421.25 260.12C420.663 260.889 419.993 261.59 419.25 262.21C415.847 265.366 412.089 268.114 408.05 270.4C407.234 270.905 406.37 271.327 405.47 271.66C406.227 271.07 407.03 270.542 407.87 270.08C409.36 269.14 411.41 267.8 413.59 266.21C415.77 264.62 417.65 263.08 419 261.93C419.71 261.278 420.461 260.673 421.25 260.12Z" fill="#FAFAFA"/>
<path d="M448.3 255.23C446.259 252.968 444.349 250.591 442.58 248.11C440.67 245.737 438.897 243.256 437.27 240.68C439.311 242.945 441.224 245.322 443 247.8C444.908 250.173 446.678 252.654 448.3 255.23Z" fill="#FAFAFA"/>
<path d="M446.44 290.38C444.57 291.691 442.604 292.861 440.56 293.88C438.593 295.05 436.541 296.07 434.42 296.93C436.29 295.613 438.259 294.443 440.31 293.43C442.273 292.259 444.322 291.239 446.44 290.38Z" fill="#FAFAFA"/>
<path d="M485.43 293.29C485.24 290.113 485.22 286.929 485.37 283.75C485.352 280.567 485.506 277.386 485.83 274.22C486.021 277.397 486.041 280.581 485.89 283.76C485.914 286.943 485.76 290.124 485.43 293.29Z" fill="#FAFAFA"/>
<path d="M501.6 320.57C498.19 321.035 494.759 321.329 491.32 321.45C485.63 321.79 481.02 321.95 481.01 321.81C484.42 321.344 487.851 321.051 491.29 320.93C497 320.59 501.59 320.43 501.6 320.57Z" fill="#FAFAFA"/>
<path d="M527.77 340.81C527.291 337.566 526.991 334.297 526.87 331.02C526.568 327.753 526.445 324.471 526.5 321.19C526.966 324.439 527.263 327.71 527.39 330.99C527.686 334.255 527.813 337.532 527.77 340.81Z" fill="#FAFAFA"/>
<path d="M516.74 366.21C514.437 368.774 512.004 371.217 509.45 373.53C507.025 375.973 504.474 378.29 501.81 380.47C501.71 380.37 504.97 377.09 509.09 373.15C513.21 369.21 516.64 366.11 516.74 366.21Z" fill="#FAFAFA"/>
<path d="M473.22 374.36C472.557 374.201 471.928 373.927 471.36 373.55C468.492 371.946 466.038 369.697 464.19 366.98C463.756 366.449 463.417 365.847 463.19 365.2C464.585 366.996 466.095 368.7 467.71 370.3C469.453 371.775 471.294 373.132 473.22 374.36Z" fill="#FAFAFA"/>
<path d="M359 283.63C356.925 285.759 354.724 287.763 352.41 289.63C350.208 291.621 347.895 293.484 345.48 295.21C347.556 293.081 349.756 291.077 352.07 289.21C354.272 287.219 356.585 285.356 359 283.63Z" fill="#FAFAFA"/>
<path d="M386.68 297.3C384.47 294.772 383.075 291.635 382.68 288.3C382.83 288.3 383.37 290.43 384.48 292.91C385.59 295.39 386.81 297.22 386.68 297.3Z" fill="#FAFAFA"/>
<path d="M338.1 228.17C338.19 228.29 334.47 231.44 329.78 235.17C325.09 238.9 321.23 241.92 321.14 241.81C321.05 241.7 324.77 238.54 329.46 234.81C334.15 231.08 338 228.06 338.1 228.17Z" fill="#FAFAFA"/>
<path d="M318.88 280.77C318.73 280.82 317.59 277.48 315.68 273.59C313.77 269.7 311.84 266.75 311.97 266.66C312.519 267.209 312.993 267.827 313.38 268.5C314.401 270.062 315.326 271.685 316.15 273.36C316.973 275.035 317.684 276.762 318.28 278.53C318.576 279.248 318.778 280.001 318.88 280.77Z" fill="#FAFAFA"/>
<path d="M310.91 302.83C310.126 303.281 309.29 303.634 308.42 303.88C304.272 305.275 299.926 305.991 295.55 306C294.646 306.049 293.739 305.985 292.85 305.81C293.741 305.686 294.64 305.626 295.54 305.63C297.703 305.54 299.86 305.329 302 305C304.13 304.638 306.24 304.164 308.32 303.58C309.162 303.261 310.028 303.01 310.91 302.83Z" fill="#FAFAFA"/>
<path d="M289.82 358.49C287.038 360.547 284.154 362.462 281.18 364.23C276.33 367.23 272.34 369.66 272.26 369.54C275.04 367.477 277.924 365.557 280.9 363.79C283.783 361.875 286.76 360.106 289.82 358.49Z" fill="#FAFAFA"/>
<path d="M317.18 378.68C317.05 378.73 315.03 373.49 312.68 366.98C310.33 360.47 308.52 355.15 308.68 355.1C308.84 355.05 310.83 360.29 313.19 366.8C315.55 373.31 317.32 378.63 317.18 378.68Z" fill="#FAFAFA"/>
<path d="M346.63 336.67C345.398 334.616 344.312 332.477 343.38 330.27C342.293 328.132 341.367 325.916 340.61 323.64C341.842 325.696 342.925 327.838 343.85 330.05C344.938 332.185 345.867 334.398 346.63 336.67Z" fill="#FAFAFA"/>
<path d="M457.91 318.52C457.71 319.296 457.432 320.05 457.08 320.77C456.52 322.14 455.74 324.02 454.93 326.12C454.12 328.22 453.43 330.12 452.93 331.53C452.707 332.301 452.408 333.047 452.04 333.76C452.125 332.961 452.307 332.176 452.58 331.42C453 329.99 453.64 328.05 454.46 325.94C455.28 323.83 456.11 321.94 456.76 320.62C457.064 319.879 457.45 319.175 457.91 318.52Z" fill="#FAFAFA"/>
<path d="M364.41 399.78C363.491 399.841 362.569 399.841 361.65 399.78C359.443 399.753 357.236 399.856 355.04 400.09C352.845 400.329 350.665 400.693 348.51 401.18C347.628 401.433 346.729 401.627 345.82 401.76C346.643 401.336 347.517 401.02 348.42 400.82C350.572 400.223 352.77 399.805 354.99 399.57C357.205 399.331 359.436 399.277 361.66 399.41C362.589 399.418 363.513 399.543 364.41 399.78Z" fill="#FAFAFA"/>
<path d="M391.37 401.71C391.23 401.79 389.68 398.98 387.1 396.04C384.52 393.1 381.97 391.15 382.1 391.04C382.738 391.337 383.328 391.728 383.85 392.2C385.182 393.251 386.411 394.426 387.52 395.71C388.644 396.988 389.649 398.368 390.52 399.83C390.888 400.415 391.174 401.047 391.37 401.71Z" fill="#FAFAFA"/>
<path d="M421.15 393.85C419.208 395.328 417.163 396.664 415.03 397.85C412.989 399.178 410.857 400.361 408.65 401.39C410.585 399.908 412.628 398.571 414.76 397.39C416.802 396.058 418.938 394.875 421.15 393.85Z" fill="#FAFAFA"/>
<path d="M452.74 400.31C451.257 400.412 449.767 400.341 448.3 400.1C446.814 400.033 445.34 399.791 443.91 399.38C445.393 399.278 446.883 399.349 448.35 399.59C449.837 399.653 451.311 399.894 452.74 400.31Z" fill="#FAFAFA"/>
<path d="M414.55 147.31C414.347 148.155 414.397 149.04 414.692 149.857C414.988 150.673 415.516 151.386 416.212 151.905C416.908 152.424 417.741 152.728 418.608 152.779C419.475 152.83 420.338 152.625 421.09 152.19C423.93 150.54 424.09 146.49 423.31 143.3C422.53 140.11 421.26 136.73 422.45 133.67C423.35 131.33 425.51 129.76 427.15 127.87C428.6 126.223 429.649 124.263 430.213 122.142C430.776 120.022 430.841 117.799 430.4 115.65C429.909 113.512 428.837 111.551 427.302 109.984C425.766 108.417 423.828 107.304 421.7 106.77C417.34 105.77 412.13 107.44 408.76 104.51C406.31 102.39 405.96 98.71 404.02 96.12C401.02 92.12 395.08 91.78 390.16 92.74C385.24 93.7 380.26 95.58 375.33 94.65C371.21 93.87 367.71 91.22 363.8 89.65C359.534 87.9997 354.859 87.7202 350.427 88.8506C345.994 89.9809 342.024 92.4648 339.069 95.9567C336.114 99.4485 334.321 103.775 333.939 108.333C333.558 112.891 334.607 117.455 336.94 121.39C338.514 124.287 341.06 126.536 344.13 127.74" fill="#263238"/>
<path d="M398 240.24C391.405 240.794 384.859 238.711 379.798 234.446C374.736 230.181 371.572 224.084 371 217.49C370.32 209.65 369.77 203.05 369.77 203.05C369.77 203.05 349.77 201.36 348.12 181.57C346.47 161.78 346.72 118.69 346.72 118.69V116.08C368.95 104.62 395.78 108.26 416.62 122.08L416.87 126.16L420.86 215C420.944 221.317 418.633 227.432 414.392 232.114C410.151 236.797 404.294 239.7 398 240.24Z" fill="#FFBE9D"/>
<path d="M356.43 149.61C356.969 149.38 357.426 148.993 357.742 148.499C358.057 148.005 358.216 147.428 358.198 146.842C358.179 146.256 357.984 145.69 357.639 145.217C357.293 144.743 356.813 144.386 356.26 144.19C355.611 143.95 354.894 143.972 354.26 144.25C353.718 144.478 353.257 144.865 352.94 145.36C352.622 145.856 352.462 146.435 352.48 147.023C352.498 147.611 352.695 148.18 353.043 148.654C353.391 149.129 353.875 149.486 354.43 149.68C355.081 149.917 355.798 149.892 356.43 149.61Z" fill="#263238"/>
<path d="M349.32 145.47C349.65 145.79 351.49 144.16 354.22 143.96C356.95 143.76 359.02 145.02 359.3 144.65C359.44 144.48 359.08 143.89 358.17 143.29C356.943 142.525 355.502 142.175 354.061 142.294C352.619 142.413 351.255 142.994 350.17 143.95C349.41 144.68 349.16 145.33 349.32 145.47Z" fill="#263238"/>
<path d="M382.18 144.92C381.714 145.249 381.357 145.71 381.153 146.243C380.949 146.776 380.908 147.357 381.035 147.914C381.162 148.47 381.451 148.976 381.867 149.367C382.282 149.759 382.804 150.018 383.367 150.112C383.929 150.207 384.508 150.132 385.028 149.897C385.548 149.662 385.986 149.278 386.288 148.793C386.589 148.309 386.74 147.746 386.721 147.175C386.702 146.605 386.513 146.053 386.18 145.59C385.735 144.976 385.066 144.561 384.318 144.436C383.569 144.31 382.801 144.484 382.18 144.92Z" fill="#263238"/>
<path d="M378.38 145.93C378.71 146.25 380.55 144.62 383.28 144.42C386.01 144.22 388.08 145.48 388.36 145.11C388.49 144.94 388.14 144.35 387.23 143.75C386.003 142.985 384.562 142.635 383.121 142.754C381.679 142.873 380.315 143.454 379.23 144.41C378.47 145.14 378.22 145.79 378.38 145.93Z" fill="#263238"/>
<path d="M369 169.2C369 168.99 367.29 168.78 364.52 168.6C363.81 168.6 363.21 168.46 363.12 168.06C363.039 167.337 363.164 166.605 363.48 165.95L365.25 160.26C367.67 152.15 369.33 145.49 368.94 145.38C368.55 145.27 366.27 151.73 363.84 159.84C363.27 161.84 362.72 163.71 362.19 165.56C361.788 166.509 361.721 167.567 362 168.56C362.121 168.814 362.3 169.037 362.522 169.211C362.745 169.384 363.004 169.504 363.28 169.56C363.682 169.639 364.092 169.663 364.5 169.63C367.3 169.56 369 169.4 369 169.2Z" fill="#263238"/>
<path d="M378.09 171.59C380.81 169.7 370.56 176.29 364.99 176.41C364.99 176.41 368.53 181.28 374.09 178.79C379.87 176.2 378.09 171.59 378.09 171.59Z" fill="white"/>
<path d="M369.75 202.76C369.75 202.76 382.33 202.91 395.05 193.62C395.05 193.62 389.95 208.3 370.05 207.9L369.75 202.76Z" fill="#EB996E"/>
<path d="M416.61 139.39C417.04 139.22 431.29 137.25 430.09 154.11C428.89 170.97 412.25 164.17 412.25 163.69C412.25 163.21 416.61 139.39 416.61 139.39Z" fill="#FFBE9D"/>
<path d="M417.84 158.14C417.92 158.14 418.12 158.37 418.6 158.63C419.279 158.972 420.061 159.043 420.79 158.83C422.62 158.31 424.32 155.58 424.62 152.55C424.772 151.109 424.594 149.652 424.1 148.29C423.98 147.751 423.731 147.249 423.374 146.827C423.017 146.406 422.563 146.077 422.05 145.87C421.718 145.758 421.358 145.765 421.031 145.892C420.704 146.018 420.431 146.254 420.26 146.56C420 147.01 420.09 147.36 420 147.38C419.91 147.4 419.65 147.07 419.84 146.38C419.966 145.972 420.227 145.62 420.58 145.38C421.069 145.065 421.661 144.953 422.23 145.07C422.913 145.254 423.537 145.611 424.042 146.107C424.546 146.603 424.914 147.22 425.11 147.9C425.727 149.413 425.964 151.054 425.8 152.68C425.45 156.07 423.48 159.12 420.99 159.68C420.529 159.782 420.051 159.778 419.591 159.667C419.132 159.556 418.704 159.342 418.34 159.04C417.84 158.55 417.78 158.17 417.84 158.14Z" fill="#EB996E"/>
<path d="M389.9 135.27C389.46 135.87 386.49 134.38 382.61 134.42C378.73 134.46 375.74 135.79 375.31 135.18C375.12 134.9 375.67 134.09 376.96 133.29C378.685 132.308 380.639 131.797 382.624 131.81C384.61 131.822 386.557 132.357 388.27 133.36C389.55 134.18 390.09 135 389.9 135.27Z" fill="#263238"/>
<path d="M358.86 136.42C358.7 137.13 356.58 137.24 354.09 137.32C351.6 137.4 349.47 137.37 349.27 136.67C349.07 135.97 351.15 134.78 354.02 134.67C356.89 134.56 359 135.74 358.86 136.42Z" fill="#263238"/>
<path d="M342.52 127.09C342.52 127.09 354.7 132.43 369.98 124.09C379.98 118.61 391.82 115.68 394.53 117.63C397.24 119.58 398.17 130.1 408.41 132.79C408.41 132.79 408.41 152.9 416.41 151.89C424.41 150.88 418.23 119.95 418.23 119.95L399.41 107.43L377.88 104.18L354.39 107.68L341.29 116.31L342.52 127.09Z" fill="#263238"/>
<path d="M419.07 103.08C417.56 103.201 416.075 103.538 414.66 104.08C413.309 104.763 412.061 105.631 410.95 106.66C410.9 106.66 411.14 106.15 411.72 105.52C412.494 104.703 413.424 104.05 414.454 103.598C415.485 103.147 416.595 102.906 417.72 102.89C418.56 102.87 419.08 103 419.07 103.08Z" fill="#263238"/>
<path d="M410.53 95.49C410.776 96.0612 410.925 96.6696 410.97 97.29C411.21 98.7673 411.267 100.269 411.14 101.76C411.017 103.259 410.631 104.725 410 106.09C409.774 106.675 409.434 107.208 409 107.66C409.174 107.073 409.394 106.501 409.66 105.95C410.183 104.588 410.519 103.162 410.66 101.71C410.788 100.253 410.788 98.7872 410.66 97.33C410.549 96.7233 410.505 96.1062 410.53 95.49Z" fill="#263238"/>
<path d="M409.74 104.09C409.706 104.269 409.662 104.446 409.61 104.62C409.466 105.141 409.278 105.65 409.05 106.14C408.285 107.773 407.172 109.219 405.791 110.378C404.409 111.537 402.791 112.381 401.05 112.85C399.302 113.321 397.465 113.355 395.7 112.95C393.667 112.488 391.781 111.53 390.21 110.16C388.431 108.636 387.147 106.617 386.52 104.36C386.18 103.14 386.105 101.861 386.3 100.61C386.505 99.2843 387.133 98.0603 388.09 97.12C388.583 96.6219 389.173 96.2301 389.823 95.9687C390.473 95.7072 391.17 95.5818 391.87 95.6C392.6 95.6541 393.308 95.8753 393.939 96.2463C394.57 96.6173 395.108 97.1284 395.51 97.74C396.375 98.9698 396.792 100.46 396.69 101.96C396.517 103.49 395.933 104.945 395 106.17C393.021 108.647 390.388 110.521 387.4 111.58C384.299 112.751 380.971 113.199 377.67 112.89C374.218 112.573 370.904 111.382 368.04 109.43C366.554 108.421 365.314 107.092 364.41 105.54C363.96 104.74 363.655 103.866 363.51 102.96C363.381 102.039 363.429 101.103 363.65 100.2C363.887 99.2901 364.309 98.439 364.89 97.7C365.493 96.9547 366.294 96.3935 367.2 96.08C368.124 95.8292 369.092 95.7889 370.034 95.962C370.975 96.135 371.866 96.5171 372.64 97.08C374.197 98.1642 375.384 99.7 376.04 101.48C376.697 103.217 376.9 105.093 376.63 106.93C376.298 108.71 375.573 110.393 374.51 111.858C373.446 113.323 372.069 114.533 370.48 115.4C367.433 117.076 363.909 117.672 360.48 117.09C357.18 116.631 354.068 115.279 351.48 113.18C350.242 112.141 349.251 110.84 348.58 109.37C347.937 107.921 347.699 106.324 347.89 104.75C348.084 103.216 348.813 101.799 349.95 100.75C350.499 100.233 351.153 99.8394 351.867 99.5962C352.581 99.353 353.339 99.2656 354.09 99.34C354.809 99.4611 355.495 99.732 356.103 100.135C356.712 100.538 357.228 101.065 357.62 101.68C358.381 102.869 358.732 104.273 358.62 105.68C358.526 106.976 358.129 108.231 357.46 109.344C356.791 110.458 355.87 111.398 354.77 112.09C352.738 113.268 350.386 113.772 348.05 113.53C345.983 113.343 343.978 112.719 342.17 111.7C338.77 109.81 336.76 106.7 336.55 103.95C336.419 102.898 336.498 101.83 336.783 100.808C337.068 99.7869 337.553 98.8322 338.21 98C338.55 97.5802 338.947 97.2099 339.39 96.9L339.86 96.61C339.269 97.0185 338.74 97.5103 338.29 98.07C337.035 99.7233 336.473 101.799 336.72 103.86C336.96 106.52 338.94 109.55 342.28 111.38C344.055 112.363 346.018 112.959 348.04 113.13C350.306 113.349 352.584 112.849 354.55 111.7C355.593 111.038 356.465 110.14 357.097 109.078C357.73 108.017 358.104 106.822 358.19 105.59C358.268 104.278 357.917 102.975 357.19 101.88C356.836 101.323 356.369 100.845 355.82 100.479C355.27 100.112 354.651 99.8638 354 99.75C353.311 99.6848 352.617 99.7681 351.963 99.994C351.309 100.22 350.711 100.583 350.21 101.06C349.143 102.042 348.468 103.378 348.31 104.82C348.13 106.31 348.358 107.82 348.97 109.19C349.61 110.595 350.561 111.836 351.75 112.82C354.273 114.853 357.301 116.163 360.51 116.61C363.842 117.174 367.267 116.596 370.23 114.97C371.751 114.138 373.068 112.98 374.087 111.577C375.105 110.175 375.8 108.563 376.12 106.86C376.379 105.111 376.187 103.324 375.56 101.67C374.932 99.9952 373.813 98.5489 372.35 97.52C371.643 96.9926 370.828 96.6292 369.963 96.4562C369.098 96.2832 368.205 96.305 367.35 96.52C366.538 96.8105 365.824 97.3234 365.29 98C364.752 98.6776 364.363 99.4615 364.15 100.3C363.947 101.134 363.903 101.999 364.02 102.85C364.159 103.696 364.443 104.511 364.86 105.26C365.723 106.745 366.909 108.016 368.33 108.98C371.123 110.886 374.354 112.052 377.72 112.37C380.945 112.677 384.198 112.243 387.23 111.1C390.134 110.076 392.696 108.265 394.63 105.87C395.526 104.711 396.084 103.327 396.24 101.87C396.331 100.495 395.95 99.1293 395.16 98C394.796 97.4376 394.309 96.9653 393.735 96.6188C393.162 96.2723 392.517 96.0607 391.85 96C391.205 95.9855 390.564 96.1021 389.966 96.3428C389.368 96.5834 388.825 96.9431 388.37 97.4C387.468 98.2785 386.875 99.4259 386.68 100.67C386.492 101.867 386.557 103.09 386.87 104.26C387.472 106.451 388.711 108.414 390.43 109.9C391.952 111.243 393.784 112.188 395.76 112.65C397.473 113.082 399.267 113.082 400.98 112.65C402.418 112.287 403.775 111.656 404.98 110.79C406.681 109.598 408.056 108 408.98 106.14C409.216 105.659 409.417 105.161 409.58 104.65C409.67 104.26 409.74 104.09 409.74 104.09Z" fill="#455A64"/>
<path d="M429.35 123.85C429.35 123.85 429.35 123.91 429.22 124C429.09 124.09 428.99 124.22 428.78 124.37C428.189 124.814 427.54 125.174 426.85 125.44C425.754 125.863 424.584 126.06 423.41 126.02C421.838 125.976 420.313 125.476 419.02 124.58C417.444 123.49 416.265 121.918 415.66 120.1C415.278 119.088 415.194 117.988 415.42 116.93C415.54 116.345 415.858 115.819 416.32 115.44C416.575 115.246 416.877 115.124 417.195 115.085C417.513 115.047 417.836 115.093 418.13 115.22C418.699 115.498 419.149 115.969 419.4 116.55C419.672 117.109 419.822 117.719 419.84 118.34C419.84 120.278 419.144 122.151 417.88 123.619C416.616 125.087 414.866 126.053 412.95 126.34C411.65 126.522 410.324 126.381 409.091 125.929C407.858 125.477 406.755 124.729 405.88 123.75C405.459 123.27 405.151 122.703 404.978 122.088C404.805 121.474 404.772 120.829 404.88 120.2C404.973 119.578 405.26 119 405.7 118.55C406.14 118.099 406.71 117.798 407.33 117.69C407.918 117.619 408.514 117.699 409.061 117.923C409.609 118.147 410.091 118.507 410.46 118.97C411.124 119.828 411.477 120.886 411.46 121.97C411.432 122.939 411.189 123.89 410.75 124.755C410.311 125.619 409.686 126.376 408.92 126.97C407.686 127.974 406.117 128.471 404.53 128.36C403.351 128.261 402.217 127.858 401.24 127.19C400.628 126.772 400.096 126.247 399.67 125.64C399.515 125.434 399.387 125.209 399.29 124.97C399.845 125.76 400.544 126.438 401.35 126.97C402.308 127.59 403.411 127.952 404.55 128.02C406.056 128.093 407.534 127.597 408.69 126.63C409.386 126.07 409.952 125.367 410.351 124.568C410.75 123.768 410.971 122.893 411 122C411.028 121.008 410.714 120.037 410.11 119.25C409.791 118.852 409.375 118.542 408.903 118.35C408.43 118.158 407.916 118.089 407.41 118.15C406.896 118.255 406.427 118.518 406.069 118.901C405.711 119.285 405.48 119.77 405.41 120.29C405.326 120.85 405.368 121.421 405.532 121.962C405.696 122.504 405.979 123.002 406.36 123.42C407.179 124.33 408.21 125.026 409.36 125.444C410.511 125.863 411.747 125.992 412.96 125.82C414.755 125.548 416.394 124.642 417.578 123.266C418.763 121.89 419.417 120.136 419.42 118.32C419.437 117.789 419.317 117.263 419.071 116.792C418.826 116.321 418.464 115.921 418.02 115.63C417.803 115.534 417.564 115.498 417.328 115.526C417.092 115.554 416.868 115.645 416.68 115.79C416.304 116.107 416.044 116.539 415.94 117.02C415.728 117.993 415.801 119.007 416.15 119.94C416.717 121.677 417.824 123.187 419.31 124.25C420.539 125.125 421.993 125.628 423.5 125.7C424.641 125.761 425.782 125.598 426.86 125.22C427.748 124.877 428.585 124.416 429.35 123.85Z" fill="#455A64"/>
<path d="M355.24 324.78L439.32 326.23L440.27 383.44L353.24 380.5L355.24 324.78Z" fill="#455A64"/>
<path d="M353.24 380.5C353.13 380.4 360.05 373.22 368.67 364.5C377.29 355.78 384.37 348.72 384.47 348.82C384.57 348.92 377.67 356.1 369.04 364.87C360.41 373.64 353.34 380.6 353.24 380.5Z" fill="#263238"/>
<path d="M440.27 383.44C440.16 383.53 433.78 376.17 426.02 367C418.26 357.83 412.07 350.32 412.18 350.23C412.29 350.14 418.66 357.49 426.42 366.67C434.18 375.85 440.38 383.35 440.27 383.44Z" fill="#263238"/>
<path d="M439.32 326.23L396.28 358.92L355.24 324.78" fill="#263238"/>
<path d="M359.4 328.01L359.87 303.55H433.55L433.69 330.33L396.29 358.48L359.4 328.01Z" fill="#EBEBEB"/>
<path d="M354.5 345.38C354.5 345.38 353.24 358.09 356.32 358.03C361.7 357.94 382.32 352.64 383.77 356.61C385.22 360.58 378.5 364.3 378.5 364.3C378.5 364.3 385.08 365.54 381.84 368.97C378.6 372.4 367.55 389.3 360.44 389.65C350.22 390.15 337.05 386.7 337.05 386.7L342.43 349.46L354.5 345.38Z" fill="#FFBE9D"/>
<path d="M381 362.42C380.731 362.659 380.436 362.867 380.12 363.04C379.54 363.42 378.68 363.92 377.6 364.51C371.934 367.571 365.829 369.737 359.5 370.93C358.29 371.16 357.3 371.31 356.62 371.38C356.268 371.446 355.908 371.469 355.55 371.45C355.55 371.37 357.04 371.11 359.43 370.57C365.666 369.173 371.71 367.027 377.43 364.18C379.63 363.1 381 362.35 381 362.42Z" fill="#EB996E"/>
<path d="M380.43 371.39C380.225 371.68 379.983 371.942 379.71 372.17C379.008 372.846 378.27 373.484 377.5 374.08C372.398 378.057 366.351 380.641 359.95 381.58C358.989 381.728 358.021 381.822 357.05 381.86C356.695 381.903 356.335 381.903 355.98 381.86C355.98 381.77 357.49 381.66 359.89 381.23C366.174 380.1 372.12 377.56 377.28 373.8C379.25 372.35 380.37 371.32 380.43 371.39Z" fill="#EB996E"/>
<path d="M439.63 345.09C439.63 345.09 440.78 355.7 436.75 357.09C431.67 358.88 410.75 351.7 409.29 355.66C407.83 359.62 414.57 363.36 414.57 363.36C414.57 363.36 407.98 364.6 411.22 368.03C414.46 371.46 425.51 388.35 432.62 388.7C439.631 388.917 446.645 388.434 453.56 387.26L450.63 348.52L439.63 345.09Z" fill="#FFBE9D"/>
<path d="M412.07 361.51C412.07 361.44 413.44 362.18 415.63 363.27C421.351 366.118 427.395 368.263 433.63 369.66C436.03 370.2 437.53 370.45 437.51 370.54C437.152 370.559 436.793 370.536 436.44 370.47C435.76 370.39 434.77 370.24 433.56 370.02C427.235 368.815 421.131 366.65 415.46 363.6C414.38 363.01 413.52 362.51 412.94 362.13C412.625 361.962 412.332 361.754 412.07 361.51Z" fill="#EB996E"/>
<path d="M413.22 370.48C413.28 370.41 414.38 371.41 416.3 372.84C418.788 374.702 421.47 376.288 424.3 377.57C427.152 378.83 430.143 379.75 433.21 380.31C435.57 380.74 437.05 380.84 437.05 380.93C436.718 380.972 436.382 380.972 436.05 380.93C435.096 380.896 434.144 380.806 433.2 380.66C430.076 380.194 427.029 379.309 424.14 378.03C421.261 376.739 418.556 375.089 416.09 373.12C415.15 372.35 414.42 371.71 413.94 371.23C413.672 371.009 413.43 370.757 413.22 370.48Z" fill="#EB996E"/>
<path d="M229.52 296.45C226.637 296.797 223.723 296.797 220.84 296.45C223.723 296.103 226.637 296.103 229.52 296.45Z" fill="#455A64"/>
<path d="M234.13 282.65C234.477 286.071 234.477 289.519 234.13 292.94C233.783 289.519 233.783 286.071 234.13 282.65Z" fill="#455A64"/>
<path d="M239 296.12C241.883 295.773 244.797 295.773 247.68 296.12C244.797 296.467 241.883 296.467 239 296.12Z" fill="#455A64"/>
<path d="M234.43 309.92C234.083 306.495 234.083 303.045 234.43 299.62C234.777 303.045 234.777 306.495 234.43 309.92Z" fill="#455A64"/>
<path d="M241.45 304C241.33 304.08 240.54 303.18 239.69 302C239.103 301.322 238.651 300.538 238.36 299.69C238.48 299.61 239.26 300.5 240.12 301.69C240.705 302.369 241.157 303.153 241.45 304Z" fill="#455A64"/>
<path d="M241 288.35C241.11 288.44 240.48 289.35 239.6 290.41C238.72 291.47 237.91 292.22 237.8 292.13C237.69 292.04 238.32 291.13 239.2 290.07C240.08 289.01 240.93 288.26 241 288.35Z" fill="#455A64"/>
<path d="M231.09 292.34C230.99 292.44 230.23 291.86 229.38 291.04C228.53 290.22 227.94 289.47 228.04 289.37C228.14 289.27 228.91 289.85 229.75 290.67C230.59 291.49 231.19 292.23 231.09 292.34Z" fill="#455A64"/>
<path d="M230.7 299.23C230.81 299.32 230.26 300.23 229.45 301.23C228.64 302.23 227.91 303.02 227.79 302.93C228.065 302.185 228.491 301.504 229.04 300.93C229.84 299.91 230.59 299.14 230.7 299.23Z" fill="#455A64"/>
<path d="M511.24 247.44C509.322 247.787 507.358 247.787 505.44 247.44C507.358 247.093 509.322 247.093 511.24 247.44Z" fill="#455A64"/>
<path d="M514.33 239.54C514.676 241.488 514.676 243.482 514.33 245.43C513.983 243.482 513.983 241.488 514.33 239.54Z" fill="#455A64"/>
<path d="M517.61 247.25C519.531 246.903 521.499 246.903 523.42 247.25C521.499 247.597 519.531 247.597 517.61 247.25Z" fill="#455A64"/>
<path d="M514.53 255.14C514.183 253.192 514.183 251.198 514.53 249.25C514.877 251.198 514.877 253.192 514.53 255.14Z" fill="#455A64"/>
<path d="M519.22 251.76C519.11 251.85 518.56 251.37 517.99 250.69C517.42 250.01 517.05 249.38 517.16 249.29C517.27 249.2 517.82 249.67 518.39 250.35C518.96 251.03 519.33 251.67 519.22 251.76Z" fill="#455A64"/>
<path d="M519 242.8C519.1 242.9 518.7 243.47 518.11 244.07C517.52 244.67 516.96 245.07 516.86 244.96C516.76 244.85 517.15 244.3 517.74 243.7C518.33 243.1 518.85 242.7 519 242.8Z" fill="#455A64"/>
<path d="M512.29 245.08C512.2 245.19 511.67 244.9 511.11 244.44C510.55 243.98 510.16 243.5 510.25 243.39C510.34 243.28 510.88 243.57 511.44 244.03C512 244.49 512.39 245 512.29 245.08Z" fill="#455A64"/>
<path d="M512 249C512.11 249.1 511.76 249.65 511.22 250.24C510.68 250.83 510.16 251.24 510.06 251.14C509.96 251.04 510.3 250.48 510.84 249.89C511.38 249.3 511.93 248.93 512 249Z" fill="#455A64"/>
<path d="M552.25 240.69L552.53 241.38C553.034 242.574 553.99 243.52 555.19 244.01L555.93 244.31L555.22 244.6C554.616 244.844 554.068 245.208 553.608 245.668C553.147 246.128 552.784 246.676 552.54 247.28L552.34 247.78L552.04 247.15C551.489 246.01 550.517 245.128 549.33 244.69L548.68 244.46L549.53 244.05C550.596 243.533 551.435 242.644 551.89 241.55L552.25 240.69Z" fill="#455A64"/>
<path d="M273.22 253.28L273.5 253.96C273.746 254.552 274.107 255.089 274.562 255.54C275.017 255.992 275.556 256.348 276.15 256.59L276.9 256.89L276.18 257.18C275.579 257.426 275.033 257.791 274.575 258.251C274.116 258.711 273.754 259.258 273.51 259.86L273.31 260.36L273.01 259.73C272.462 258.59 271.489 257.71 270.3 257.28L269.65 257.04L270.5 256.63C271.562 256.108 272.399 255.22 272.86 254.13L273.22 253.28Z" fill="#455A64"/>
<path d="M237.81 348.92L237.95 349.26C238.202 349.858 238.68 350.333 239.28 350.58L239.65 350.73L239.29 350.87C238.989 350.993 238.715 351.175 238.485 351.405C238.255 351.635 238.073 351.909 237.95 352.21L237.85 352.46L237.7 352.15C237.427 351.58 236.943 351.139 236.35 350.92L236.02 350.8L236.45 350.6C236.98 350.337 237.398 349.894 237.63 349.35L237.81 348.92Z" fill="#455A64"/>
<path d="M480.24 211.08L480.52 211.76C480.766 212.352 481.127 212.889 481.582 213.34C482.037 213.792 482.576 214.148 483.17 214.39L483.92 214.69L483.2 214.98C482.599 215.226 482.053 215.591 481.595 216.051C481.136 216.511 480.774 217.058 480.53 217.66L480.33 218.16L480.03 217.53C479.482 216.39 478.509 215.51 477.32 215.08L476.67 214.84L477.52 214.43C478.584 213.91 479.423 213.022 479.88 211.93L480.24 211.08Z" fill="#455A64"/>
<path d="M371.386 319.298H373.668C375.348 319.298 376.608 320.642 376.608 322.224C376.608 323.47 375.74 324.562 374.732 324.856L376.286 327.992C376.342 328.118 376.37 328.244 376.37 328.356C376.37 328.776 376.006 329.07 375.642 329.07C375.418 329.07 375.166 328.958 375.026 328.664L373.234 325.108H371.932V328.286C371.932 328.804 371.68 329.07 371.218 329.07C370.756 329.07 370.504 328.804 370.504 328.286V320.194C370.504 319.592 370.798 319.298 371.386 319.298ZM371.932 320.726V323.778H373.682C374.578 323.778 375.18 323.078 375.18 322.238C375.18 321.412 374.578 320.726 373.682 320.726H371.932ZM382.937 325.92H378.737C378.891 327.026 379.535 327.81 380.809 327.81C381.439 327.81 381.943 327.586 382.307 327.264C382.489 327.096 382.657 327.026 382.881 327.026C383.203 327.026 383.511 327.292 383.511 327.67C383.511 328.314 382.377 329.126 380.767 329.126C378.877 329.126 377.365 327.614 377.365 325.71C377.365 323.764 378.877 322.28 380.767 322.28C382.727 322.28 383.959 323.792 383.959 325.01C383.959 325.598 383.595 325.92 382.937 325.92ZM378.807 324.884H382.615C382.461 324.072 381.733 323.568 380.781 323.568C379.871 323.568 379.059 324.072 378.807 324.884ZM390.723 328.216C390.191 328.79 389.253 329.14 388.287 329.14C386.355 329.14 384.857 327.628 384.857 325.71C384.857 323.778 386.355 322.28 388.287 322.28C389.155 322.28 389.897 322.56 390.415 322.952C390.695 323.162 390.821 323.386 390.821 323.652C390.821 324.002 390.541 324.282 390.149 324.282C389.981 324.282 389.799 324.212 389.603 324.072C389.253 323.806 388.805 323.638 388.315 323.638C387.125 323.638 386.229 324.548 386.229 325.71C386.229 326.858 387.125 327.782 388.329 327.782C388.917 327.782 389.421 327.572 389.799 327.236C389.939 327.096 390.149 326.984 390.359 326.984C390.723 326.984 390.989 327.278 390.989 327.642C390.989 327.81 390.919 327.992 390.723 328.216ZM395.259 323.638C394.111 323.638 393.201 324.576 393.201 325.71C393.201 326.844 394.111 327.782 395.259 327.782C396.407 327.782 397.345 326.844 397.345 325.71C397.345 324.576 396.407 323.638 395.259 323.638ZM398.703 325.71C398.703 327.614 397.149 329.14 395.259 329.14C393.355 329.14 391.857 327.614 391.857 325.71C391.857 323.778 393.355 322.28 395.259 322.28C397.149 322.28 398.703 323.778 398.703 325.71ZM400.279 322.952L401.945 327.166L403.625 322.938C403.765 322.574 404.017 322.42 404.297 322.42C404.633 322.42 404.941 322.672 404.941 323.064C404.941 323.176 404.913 323.302 404.857 323.428L402.701 328.51C402.533 328.902 402.337 329.07 401.945 329.07C401.581 329.07 401.357 328.902 401.189 328.51L399.047 323.442C398.991 323.316 398.963 323.19 398.963 323.092C398.963 322.686 399.271 322.42 399.607 322.42C399.887 322.42 400.125 322.574 400.279 322.952ZM410.814 325.92H406.614C406.768 327.026 407.412 327.81 408.686 327.81C409.316 327.81 409.82 327.586 410.184 327.264C410.366 327.096 410.534 327.026 410.758 327.026C411.08 327.026 411.388 327.292 411.388 327.67C411.388 328.314 410.254 329.126 408.644 329.126C406.754 329.126 405.242 327.614 405.242 325.71C405.242 323.764 406.754 322.28 408.644 322.28C410.604 322.28 411.836 323.792 411.836 325.01C411.836 325.598 411.472 325.92 410.814 325.92ZM406.684 324.884H410.492C410.338 324.072 409.61 323.568 408.658 323.568C407.748 323.568 406.936 324.072 406.684 324.884ZM413.517 322.462C414.007 322.462 414.133 322.7 414.231 323.246C414.497 322.686 415.127 322.294 415.841 322.294C416.555 322.294 417.507 322.686 417.507 323.372C417.507 323.75 417.255 324.058 416.863 324.058C416.639 324.058 416.499 323.974 416.359 323.862C416.107 323.666 415.883 323.582 415.575 323.582C414.707 323.582 414.245 324.212 414.245 325.038V328.09C414.245 328.706 414.119 329.028 413.573 329.028C413.055 329.028 412.929 328.706 412.929 328.062V323.176C412.929 322.742 413.111 322.462 413.517 322.462ZM419.368 322.952L421.02 327.11L422.714 322.938C422.854 322.574 423.092 322.42 423.386 322.42C423.722 322.42 424.03 322.672 424.03 323.064C424.03 323.176 424.002 323.302 423.946 323.428L420.334 332.094C420.208 332.402 419.928 332.542 419.704 332.542C419.368 332.542 419.046 332.29 419.046 331.898C419.046 331.8 419.06 331.674 419.116 331.562L420.334 328.72L418.136 323.442C418.08 323.316 418.052 323.19 418.052 323.092C418.052 322.686 418.36 322.42 418.696 322.42C418.976 322.42 419.214 322.574 419.368 322.952Z" fill="black"/>
</svg>
