<svg width="1498" height="323" viewBox="0 0 1498 323" fill="none" xmlns="http://www.w3.org/2000/svg">
<g clip-path="url(#clip0_4_2)">
<path d="M425.11 7.56995C479.21 7.56995 514.05 51.66 514.05 103.76C514.05 155.86 479.21 200.39 425.11 200.39H384.94V286.34C384.94 307.27 375.1 318.4 357.07 318.4C339.04 318.4 329.61 307.27 329.61 286.34V42.7499C329.61 19.1499 340.27 7.56995 361.99 7.56995H425.11ZM384.53 145.17H425.52C444.78 145.17 459.13 126.91 459.13 105.54C459.13 84.1699 444.78 67.2399 425.52 67.2399H384.53V145.17Z" fill="#FF6200"/>
<path d="M673.9 7.56995C693.57 7.56995 703.82 17.8099 703.82 37.4099C703.82 57.0099 693.57 67.2499 673.9 67.2499H639.06V285.9C639.06 307.28 630.45 318.41 612.01 318.41C593.57 318.41 584.14 307.72 584.14 286.79V67.2399H550.12C530.04 67.2399 520.2 57.4399 520.2 36.9599C520.2 16.4799 530.04 7.56995 550.12 7.56995H673.9Z" fill="#FB8600"/>
<path d="M842.76 7.56995C862.43 7.56995 872.68 17.8099 872.68 37.4099C872.68 57.0099 862.43 67.2499 842.76 67.2499H822.68V256.51H842.76C862.43 256.51 872.68 266.75 872.68 286.35C872.68 305.95 862.43 316.19 842.76 316.19H746.03C725.95 316.19 716.11 306.39 716.11 285.91C716.11 265.43 725.95 256.52 746.03 256.52H767.34V67.2399H746.03C725.95 67.2399 716.11 57.4399 716.11 36.9599C716.11 16.4799 725.95 7.56995 746.03 7.56995H842.76Z" fill="#FF9E33"/>
<path d="M1110.82 28.5C1116.97 12.91 1126.81 5.33997 1141.56 5.33997C1157.55 5.33997 1171.89 16.03 1171.89 41.41V285.89C1171.89 307.71 1163.28 318.4 1144.84 318.4C1126.4 318.4 1117.79 307.71 1117.79 285.89V159.42L1062.46 299.25C1057.54 311.27 1046.07 318.4 1035 318.4C1023.93 318.4 1011.64 311.27 1006.72 299.25L952.21 159.42V285.89C952.21 307.71 943.6 318.4 925.16 318.4C906.72 318.4 898.11 307.71 898.11 285.89V41.41C898.11 16.03 912.05 5.33997 928.44 5.33997C943.2 5.33997 953.03 12.91 959.18 28.5L1035.01 220.43L1110.84 28.5H1110.82Z" fill="#FFB23F"/>
<path d="M59.81 144.78C67.52 97.45 104.01 59.67 150.5 59.67C196.99 59.67 234.8 96.93 242.22 144.78H295.79C288.09 64.3 225.89 0 145.76 0C65.63 0 8.25 65.24 0 144.78H59.81Z" fill="#FF3C00"/>
<path d="M1439.15 144.78C1439.99 150.28 1440.44 155.91 1440.44 161.65C1440.44 219.1 1400.7 264.07 1349.33 264.07C1297.96 264.07 1259.02 218.65 1259.02 163.43C1259.02 157.09 1259.55 150.86 1260.52 144.78H1206.59C1205.97 150.92 1205.64 157.15 1205.64 163.43C1205.64 252.05 1271.06 322.86 1351.34 322.86C1431.62 322.86 1497.04 251.61 1497.04 161.65C1497.04 155.96 1496.77 150.33 1496.25 144.78H1439.15Z" fill="#FFCA55"/>
</g>
<defs>
<clipPath id="clip0_4_2">
<rect width="1497.04" height="322.86" fill="white"/>
</clipPath>
</defs>
</svg>
