<?xml version="1.0" encoding="utf-8"?>
<!-- Generator: Adobe Illustrator 27.7.0, SVG Export Plug-In . SVG Version: 6.00 Build 0)  -->
<svg version="1.1" id="Capa_1" xmlns="http://www.w3.org/2000/svg" xmlns:xlink="http://www.w3.org/1999/xlink" x="0px" y="0px"
	 viewBox="0 0 1497 861.9" style="enable-background:new 0 0 1497 861.9;" xml:space="preserve">
<style type="text/css">
	.st0{fill:#FF6200;}
	.st1{fill:#FB8600;}
	.st2{fill:#FF9E33;}
	.st3{fill:#FFB23F;}
	.st4{fill:#FF3C00;}
	.st5{fill:#FFCA55;}
</style>
<path class="st0" d="M425.1,232.1c54.1,0,88.9,44.1,88.9,96.2S479.2,425,425.1,425h-40.2v85.9c0,20.9-9.8,32.1-27.9,32.1
	s-27.5-11.1-27.5-32.1V267.3c0-23.6,10.7-35.2,32.4-35.2H425.1L425.1,232.1z M384.5,369.8h41c19.3,0,33.6-18.3,33.6-39.6
	s-14.4-38.3-33.6-38.3h-41V369.8z"/>
<path class="st1" d="M673.9,232.1c19.7,0,29.9,10.2,29.9,29.8s-10.2,29.8-29.9,29.8h-34.8v218.6c0,21.4-8.6,32.5-27,32.5
	s-27.9-10.7-27.9-31.6V291.8h-34c-20.1,0-29.9-9.8-29.9-30.3s9.8-29.4,29.9-29.4L673.9,232.1L673.9,232.1z"/>
<path class="st2" d="M842.8,232.1c19.7,0,29.9,10.2,29.9,29.8s-10.2,29.8-29.9,29.8h-20.1v189.3h20.1c19.7,0,29.9,10.2,29.9,29.8
	s-10.2,29.8-29.9,29.8H746c-20.1,0-29.9-9.8-29.9-30.3s9.8-29.4,29.9-29.4h21.3V291.8H746c-20.1,0-29.9-9.8-29.9-30.3
	s9.8-29.4,29.9-29.4L842.8,232.1L842.8,232.1z"/>
<path class="st3" d="M1110.8,253.1c6.2-15.6,16-23.2,30.7-23.2c16,0,30.3,10.7,30.3,36.1v244.5c0,21.8-8.6,32.5-27.1,32.5
	s-27.1-10.7-27.1-32.5V384l-55.3,139.8c-4.9,12-16.4,19.2-27.5,19.2s-23.4-7.1-28.3-19.2L952.2,384v126.5c0,21.8-8.6,32.5-27,32.5
	s-27-10.7-27-32.5V266c0-25.4,13.9-36.1,30.3-36.1c14.8,0,24.6,7.6,30.7,23.2L1035,445L1110.8,253.1L1110.8,253.1z"/>
<path class="st4" d="M59.8,369.4c7.7-47.3,44.2-85.1,90.7-85.1s84.3,37.3,91.7,85.1h53.6c-7.7-80.5-69.9-144.8-150-144.8
	S8.2,289.8,0,369.4H59.8z"/>
<path class="st5" d="M1439.2,369.4c0.8,5.5,1.3,11.1,1.3,16.9c0,57.5-39.7,102.4-91.1,102.4S1259,443.2,1259,388
	c0-6.3,0.5-12.6,1.5-18.6h-53.9c-0.6,6.1-0.9,12.4-0.9,18.6c0,88.6,65.4,159.4,145.7,159.4S1497,476.2,1497,386.2
	c0-5.7-0.3-11.3-0.8-16.9L1439.2,369.4L1439.2,369.4z"/>
</svg>
